<?xml version="1.0" encoding="UTF-8" standalone="no"?>
<svg
   xmlns:dc="http://purl.org/dc/elements/1.1/"
   xmlns:cc="http://creativecommons.org/ns#"
   xmlns:rdf="http://www.w3.org/1999/02/22-rdf-syntax-ns#"
   xmlns:svg="http://www.w3.org/2000/svg"
   xmlns="http://www.w3.org/2000/svg"
   id="svg4986"
   version="1.1"
   preserveAspectRatio="xMidYMid"
   viewBox="120.89376 14.59496 196 69.999999"
   height="70"
   width="196">
  <metadata
     id="metadata4990">
    <rdf:RDF>
      <cc:Work
         rdf:about="">
        <dc:format>image/svg+xml</dc:format>
        <dc:type
           rdf:resource="http://purl.org/dc/dcmitype/StillImage" />
        <dc:title></dc:title>
      </cc:Work>
    </rdf:RDF>
  </metadata>
  <defs
     id="defs4968">
    <filter
       height="3"
       width="3"
       y="-1"
       x="-1"
       id="editing-vintage">
      <feConvolveMatrix
         id="feConvolveMatrix4913"
         kernelMatrix="1,0,0,0,0,0,0,0,0,0,1,0,0,0,0,0,0,0,0,0,1,0,0,0,0,0,0,0,0,0,1,0,0,0,0,0,0,0,0,0,1,0,0,0,0,0,0,0,0,0,1,0,0,0,0,0,0,0,0,0,1,0,0,0,0,0,0,0,0,0,1,0,0,0,0,0,0,0,0,0,1"
         divisor="1"
         order="9,9"
         result="extrude"
         in="SourceGraphic" />
      <feFlood
         id="feFlood4915"
         result="flood-extrude"
         flood-color="#2f0099" />
      <feComposite
         id="feComposite4917"
         result="extrude-color"
         in2="extrude"
         in="flood-extrude"
         operator="in" />
      <feOffset
         id="feOffset4919"
         result="extrude-offset"
         in="extrude-color"
         dy="5"
         dx="5" />
      <feColorMatrix
         id="feColorMatrix4921"
         values="0 0 0 0 0 0 0 0 0 0 0 0 0 0 0 0 1 0 0 0 "
         type="matrix"
         result="stroke"
         in="SourceGraphic" />
      <feColorMatrix
         id="feColorMatrix4923"
         values="0 0 0 0 0 0 0 0 0 0 0 0 0 0 0 1 0 0 1 0 "
         type="matrix"
         result="fill"
         in="SourceGraphic" />
      <feConvolveMatrix
         id="feConvolveMatrix4925"
         kernelMatrix="1 0 0 0 0 0 1 0 0 0 0 0 1 0 0 0 0 0 1 0 0 0 0 0 1 "
         divisor="1"
         order="5,5"
         result="inner-shadow"
         in="stroke" />
      <feOffset
         id="feOffset4927"
         result="offset"
         in="inner-shadow"
         dy="1"
         dx="1" />
      <feComposite
         id="feComposite4929"
         result="comp"
         in2="SourceAlpha"
         in="offset"
         operator="in" />
      <feFlood
         id="feFlood4931"
         result="flood3"
         flood-color="#000" />
      <feComposite
         id="feComposite4933"
         result="comp2"
         in2="comp"
         in="flood3"
         operator="in" />
      <feColorMatrix
         id="feColorMatrix4935"
         values="1 0 0 0 0 0 1 0 0 0 0 0 1 0 0 0 0 0 0.5 0 "
         type="matrix"
         result="comp3"
         in="comp2" />
      <feFlood
         id="feFlood4937"
         result="flood1"
         flood-color="#00ceff" />
      <feComposite
         id="feComposite4939"
         result="fill2"
         in2="fill"
         in="flood1"
         operator="in" />
      <feFlood
         id="feFlood4941"
         result="flood2"
         flood-color="#fff" />
      <feComposite
         id="feComposite4943"
         result="stroke2"
         in2="stroke"
         in="flood2"
         operator="in" />
      <feMerge
         id="feMerge4951"
         result="obj">
        <feMergeNode
           id="feMergeNode4945"
           in="extrude-offset" />
        <feMergeNode
           id="feMergeNode4947"
           in="fill2" />
        <feMergeNode
           id="feMergeNode4949"
           in="comp3" />
      </feMerge>
      <feConvolveMatrix
         id="feConvolveMatrix4953"
         kernelMatrix="1,0,0,0,0,0,0,0,0,0,1,0,0,0,0,0,0,0,0,0,1,0,0,0,0,0,0,0,0,0,1,0,0,0,0,0,0,0,0,0,1,0,0,0,0,0,0,0,0,0,1,0,0,0,0,0,0,0,0,0,1,0,0,0,0,0,0,0,0,0,1,0,0,0,0,0,0,0,0,0,1"
         divisor="1"
         order="9,9"
         result="shadow"
         in="SourceAlpha" />
      <feOffset
         id="feOffset4955"
         result="shadow-offset"
         in="shadow"
         dy="15"
         dx="15" />
      <feFlood
         id="feFlood4957"
         result="flood-shadow"
         flood-color="#444444" />
      <feComposite
         id="feComposite4959"
         result="shadow-color"
         in2="shadow-offset"
         in="flood-shadow"
         operator="in" />
      <feMerge
         id="feMerge4965">
        <feMergeNode
           id="feMergeNode4961"
           in="shadow-color" />
        <feMergeNode
           id="feMergeNode4963"
           in="obj" />
      </feMerge>
    </filter>
  </defs>
  <g
     id="g4982"
     transform="translate(-38.705862,-35.150974)">
    <g
       style="filter:url(#editing-vintage)"
       id="g4974">
      <g
         id="g4972"
         transform="translate(161.97,97.4)">
        <path
           style="fill:#ff0000;stroke:#00ff00;stroke-width:1.79999995"
           id="path4970"
           d="m 27.01,-20.61 12.93,-1.15 v 0 q -4.61,10.11 -4.61,21.82 v 0 0 Q 33.6,1.28 31.07,1.28 v 0 0 q -2.53,0 -4.13,-1.18 v 0 0 q -1.6,-1.19 -1.92,-2.4 v 0 0 q -1.6,1.66 -4.19,2.62 v 0 0 q -2.59,0.96 -5.34,0.96 v 0 0 q -2.75,0 -5.15,-0.9 v 0 0 Q 7.94,-0.51 6.08,-2.5 v 0 0 q -4.1,-4.35 -4.1,-12.6 v 0 0 q 0,-12.8 6.85,-20.48 v 0 0 q 7.04,-7.94 19.52,-7.94 v 0 0 q 8.64,0 11.71,4.48 v 0 0 q 0.96,1.41 0.96,3.1 v 0 0 q 0,1.7 -0.73,3.14 v 0 0 q -0.74,1.44 -1.89,2.59 v 0 0 q -2.75,2.56 -6.14,2.56 v 0 0 q -1.35,0 -2.63,-0.45 v 0 0 q 0.26,-1.92 0.26,-4.16 v 0 0 q 0,-2.24 -0.16,-3.26 v 0 0 q -0.16,-1.02 -0.55,-1.86 v 0 0 q -0.83,-1.72 -2.65,-1.72 v 0 0 q -1.83,0 -3.84,1.95 v 0 0 q -2.02,1.95 -3.62,5.15 v 0 0 q -3.52,7.17 -3.52,15.81 v 0 0 q 0,3.97 1.54,6.78 v 0 0 q 1.66,3.07 4.61,3.07 v 0 0 q 1.02,0 1.95,-0.51 v 0 0 q 0.93,-0.51 1.31,-0.89 v 0 z m 18.85,18.69 v 0 0 q -1.51,-1.66 -2.18,-4.29 v 0 0 q -0.67,-2.62 -0.67,-6.91 v 0 0 q 0,-4.29 1.47,-8.19 v 0 0 q 1.47,-3.91 4.16,-6.72 v 0 0 q 5.5,-5.89 14.59,-5.89 v 0 0 q 3.27,0 5.63,1.09 v 0 l 10.95,-1.09 -4.74,24.96 v 0 q -0.19,0.77 -0.19,2.18 v 0 0 q 0,1.4 0.86,2.3 v 0 0 q 0.87,0.9 2.15,1.02 v 0 0 Q 77.25,-1.28 74.91,0 v 0 0 q -2.33,1.28 -4.96,1.28 v 0 0 q -2.62,0 -4.38,-0.99 v 0 0 Q 63.81,-0.7 63.3,-2.37 v 0 0 q -1.03,1.6 -3.2,2.63 v 0 0 q -2.18,1.02 -5.09,1.02 v 0 0 q -2.91,0 -5.28,-0.77 v 0 0 q -2.37,-0.77 -3.87,-2.43 z m 13.5,-25.98 v 0 0 q -0.74,1.15 -1.38,3.1 v 0 0 q -0.64,1.95 -1.69,7.17 v 0 0 q -1.06,5.21 -1.06,8.93 v 0 0 q 0,3.71 0.58,4.8 v 0 0 q 0.57,1.08 1.6,1.08 v 0 0 q 2.05,0 3.55,-1.95 v 0 0 q 1.5,-1.95 2.08,-5.41 v 0 l 3.39,-18.75 v 0 q -1.34,-1.15 -2.91,-1.15 v 0 0 q -1.57,0 -2.5,0.51 v 0 0 q -0.92,0.51 -1.66,1.67 z m 69.98,29.18 v 0 0 q -7.74,0 -7.74,-6.02 v 0 0 q 0,-2.62 1.12,-7.71 v 0 0 q 1.12,-5.09 1.5,-7.13 v 0 0 q 0.9,-4.68 0.9,-6.15 v 0 0 q 0,-3.26 -2.43,-3.26 v 0 0 q -1.6,0 -3.14,2.21 v 0 0 q -1.53,2.2 -2.24,6.62 v 0 L 113.34,0 l -12.48,1.28 3.46,-17.41 v 0 q 0.58,-2.88 1.09,-6.14 v 0 0 q 0.51,-3.27 0.51,-3.78 v 0 0 q 0,-2.94 -2.18,-2.94 v 0 0 q -1.47,0 -3.07,2.17 v 0 0 q -1.6,2.18 -2.49,6.66 v 0 L 94.27,0 81.66,1.28 l 6.72,-33.92 10.44,-1.28 -1.09,6.46 v 0 q 1.66,-3.45 4.73,-4.96 v 0 0 q 3.08,-1.5 7.88,-1.5 v 0 0 q 2.75,0 4.54,1.34 v 0 0 q 1.79,1.35 2.37,3.52 v 0 0 q 1.09,-2.24 3.87,-3.55 v 0 0 q 2.78,-1.31 6.21,-1.31 v 0 0 q 3.42,0 5.12,0.74 v 0 0 q 1.69,0.73 2.72,1.95 v 0 0 q 1.73,2.24 1.73,6.33 v 0 0 q 0,4.04 -1.73,12.42 v 0 0 q -0.9,4.1 -0.9,5.6 v 0 0 q 0,1.5 0.87,2.4 v 0 0 q 0.86,0.9 2.14,1.02 v 0 0 q -0.64,2.18 -2.85,3.46 v 0 0 q -2.21,1.28 -5.09,1.28 z m 38.79,-12.1 v 0 0 q 1.6,1.09 1.6,3.49 v 0 0 q 0,2.4 -1.22,3.94 v 0 0 q -1.21,1.53 -3.2,2.56 v 0 0 q -4.09,2.11 -8.51,2.11 v 0 0 q -4.42,0 -7.01,-0.96 v 0 0 q -2.59,-0.96 -4.32,-2.75 v 0 0 q -3.39,-3.39 -3.39,-9.6 v 0 0 q 0,-9.67 5.25,-15.55 v 0 0 q 5.63,-6.34 15.42,-6.34 v 0 0 q 6.08,0 9.09,2.56 v 0 0 q 2.24,1.92 2.24,5.06 v 0 0 q 0,11.26 -19.46,11.26 v 0 0 q -0.25,1.66 -0.25,3.07 v 0 0 q 0,2.95 1.31,4.07 v 0 0 q 1.31,1.12 3.74,1.12 v 0 0 q 2.44,0 5.03,-1.12 v 0 0 q 2.59,-1.12 3.68,-2.92 z m -13.06,-6.97 v 0 0 q 4.55,0 7.17,-2.82 v 0 0 q 2.62,-2.69 2.62,-6.97 v 0 0 q 0,-1.48 -0.54,-2.28 v 0 0 q -0.54,-0.8 -1.63,-0.8 v 0 0 q -1.09,0 -2.02,0.42 v 0 0 q -0.93,0.42 -1.89,1.82 v 0 0 q -2.36,3.2 -3.71,10.63 z" />
      </g>
    </g>
    <g
       id="g4980">
      <g
         id="g4978"
         transform="translate(161.97,97.4)">
        <path
           style="fill:none;stroke:#d0fffa;stroke-width:2.0999999"
           id="path4976"
           d="m 27.01,-20.61 12.93,-1.15 v 0 q -4.61,10.11 -4.61,21.82 v 0 0 Q 33.6,1.28 31.07,1.28 v 0 0 q -2.53,0 -4.13,-1.18 v 0 0 q -1.6,-1.19 -1.92,-2.4 v 0 0 q -1.6,1.66 -4.19,2.62 v 0 0 q -2.59,0.96 -5.34,0.96 v 0 0 q -2.75,0 -5.15,-0.9 v 0 0 Q 7.94,-0.51 6.08,-2.5 v 0 0 q -4.1,-4.35 -4.1,-12.6 v 0 0 q 0,-12.8 6.85,-20.48 v 0 0 q 7.04,-7.94 19.52,-7.94 v 0 0 q 8.64,0 11.71,4.48 v 0 0 q 0.96,1.41 0.96,3.1 v 0 0 q 0,1.7 -0.73,3.14 v 0 0 q -0.74,1.44 -1.89,2.59 v 0 0 q -2.75,2.56 -6.14,2.56 v 0 0 q -1.35,0 -2.63,-0.45 v 0 0 q 0.26,-1.92 0.26,-4.16 v 0 0 q 0,-2.24 -0.16,-3.26 v 0 0 q -0.16,-1.02 -0.55,-1.86 v 0 0 q -0.83,-1.72 -2.65,-1.72 v 0 0 q -1.83,0 -3.84,1.95 v 0 0 q -2.02,1.95 -3.62,5.15 v 0 0 q -3.52,7.17 -3.52,15.81 v 0 0 q 0,3.97 1.54,6.78 v 0 0 q 1.66,3.07 4.61,3.07 v 0 0 q 1.02,0 1.95,-0.51 v 0 0 q 0.93,-0.51 1.31,-0.89 v 0 z m 18.85,18.69 v 0 0 q -1.51,-1.66 -2.18,-4.29 v 0 0 q -0.67,-2.62 -0.67,-6.91 v 0 0 q 0,-4.29 1.47,-8.19 v 0 0 q 1.47,-3.91 4.16,-6.72 v 0 0 q 5.5,-5.89 14.59,-5.89 v 0 0 q 3.27,0 5.63,1.09 v 0 l 10.95,-1.09 -4.74,24.96 v 0 q -0.19,0.77 -0.19,2.18 v 0 0 q 0,1.4 0.86,2.3 v 0 0 q 0.87,0.9 2.15,1.02 v 0 0 Q 77.25,-1.28 74.91,0 v 0 0 q -2.33,1.28 -4.96,1.28 v 0 0 q -2.62,0 -4.38,-0.99 v 0 0 Q 63.81,-0.7 63.3,-2.37 v 0 0 q -1.03,1.6 -3.2,2.63 v 0 0 q -2.18,1.02 -5.09,1.02 v 0 0 q -2.91,0 -5.28,-0.77 v 0 0 q -2.37,-0.77 -3.87,-2.43 z m 13.5,-25.98 v 0 0 q -0.74,1.15 -1.38,3.1 v 0 0 q -0.64,1.95 -1.69,7.17 v 0 0 q -1.06,5.21 -1.06,8.93 v 0 0 q 0,3.71 0.58,4.8 v 0 0 q 0.57,1.08 1.6,1.08 v 0 0 q 2.05,0 3.55,-1.95 v 0 0 q 1.5,-1.95 2.08,-5.41 v 0 l 3.39,-18.75 v 0 q -1.34,-1.15 -2.91,-1.15 v 0 0 q -1.57,0 -2.5,0.51 v 0 0 q -0.92,0.51 -1.66,1.67 z m 69.98,29.18 v 0 0 q -7.74,0 -7.74,-6.02 v 0 0 q 0,-2.62 1.12,-7.71 v 0 0 q 1.12,-5.09 1.5,-7.13 v 0 0 q 0.9,-4.68 0.9,-6.15 v 0 0 q 0,-3.26 -2.43,-3.26 v 0 0 q -1.6,0 -3.14,2.21 v 0 0 q -1.53,2.2 -2.24,6.62 v 0 L 113.34,0 l -12.48,1.28 3.46,-17.41 v 0 q 0.58,-2.88 1.09,-6.14 v 0 0 q 0.51,-3.27 0.51,-3.78 v 0 0 q 0,-2.94 -2.18,-2.94 v 0 0 q -1.47,0 -3.07,2.17 v 0 0 q -1.6,2.18 -2.49,6.66 v 0 L 94.27,0 81.66,1.28 l 6.72,-33.92 10.44,-1.28 -1.09,6.46 v 0 q 1.66,-3.45 4.73,-4.96 v 0 0 q 3.08,-1.5 7.88,-1.5 v 0 0 q 2.75,0 4.54,1.34 v 0 0 q 1.79,1.35 2.37,3.52 v 0 0 q 1.09,-2.24 3.87,-3.55 v 0 0 q 2.78,-1.31 6.21,-1.31 v 0 0 q 3.42,0 5.12,0.74 v 0 0 q 1.69,0.73 2.72,1.95 v 0 0 q 1.73,2.24 1.73,6.33 v 0 0 q 0,4.04 -1.73,12.42 v 0 0 q -0.9,4.1 -0.9,5.6 v 0 0 q 0,1.5 0.87,2.4 v 0 0 q 0.86,0.9 2.14,1.02 v 0 0 q -0.64,2.18 -2.85,3.46 v 0 0 q -2.21,1.28 -5.09,1.28 z m 38.79,-12.1 v 0 0 q 1.6,1.09 1.6,3.49 v 0 0 q 0,2.4 -1.22,3.94 v 0 0 q -1.21,1.53 -3.2,2.56 v 0 0 q -4.09,2.11 -8.51,2.11 v 0 0 q -4.42,0 -7.01,-0.96 v 0 0 q -2.59,-0.96 -4.32,-2.75 v 0 0 q -3.39,-3.39 -3.39,-9.6 v 0 0 q 0,-9.67 5.25,-15.55 v 0 0 q 5.63,-6.34 15.42,-6.34 v 0 0 q 6.08,0 9.09,2.56 v 0 0 q 2.24,1.92 2.24,5.06 v 0 0 q 0,11.26 -19.46,11.26 v 0 0 q -0.25,1.66 -0.25,3.07 v 0 0 q 0,2.95 1.31,4.07 v 0 0 q 1.31,1.12 3.74,1.12 v 0 0 q 2.44,0 5.03,-1.12 v 0 0 q 2.59,-1.12 3.68,-2.92 z m -13.06,-6.97 v 0 0 q 4.55,0 7.17,-2.82 v 0 0 q 2.62,-2.69 2.62,-6.97 v 0 0 q 0,-1.48 -0.54,-2.28 v 0 0 q -0.54,-0.8 -1.63,-0.8 v 0 0 q -1.09,0 -2.02,0.42 v 0 0 q -0.93,0.42 -1.89,1.82 v 0 0 q -2.36,3.2 -3.71,10.63 z" />
      </g>
    </g>
  </g>
  <style
     id="style4984">text {
  font-size: 64px;
  font-family: Arial Black;
  dominant-baseline: central;
  text-anchor: middle;
}</style>
</svg>
